<svg width="28" height="13" viewBox="0 0 28 13" fill="none" xmlns="http://www.w3.org/2000/svg">
<g id="_StatusBar-battery">
<path id="Outline" opacity="0.35" d="M0.799316 4C0.799316 2.067 2.36632 0.5 4.29932 0.5H21.2993C23.2323 0.5 24.7993 2.067 24.7993 4V9C24.7993 10.933 23.2323 12.5 21.2993 12.5H4.29932C2.36632 12.5 0.799316 10.933 0.799316 9V4Z" stroke="black"/>
<path id="Battery End" opacity="0.4" d="M26.2993 5V9.22034C27.1484 8.86291 27.7005 8.0314 27.7005 7.11017C27.7005 6.18894 27.1484 5.35744 26.2993 5Z" fill="black"/>
<path id="Fill" d="M2.29932 4C2.29932 2.89543 3.19475 2 4.29932 2H21.2993C22.4039 2 23.2993 2.89543 23.2993 4V9C23.2993 10.1046 22.4039 11 21.2993 11H4.29932C3.19475 11 2.29932 10.1046 2.29932 9V4Z" fill="black"/>
</g>
</svg>
