<svg width="18" height="12" viewBox="0 0 18 12" fill="none" xmlns="http://www.w3.org/2000/svg">
<path id="Wifi" fill-rule="evenodd" clip-rule="evenodd" d="M8.79978 2.58753C11.2663 2.58764 13.6386 3.55505 15.4262 5.28982C15.5608 5.42375 15.776 5.42206 15.9085 5.28603L17.1953 3.96045C17.2624 3.89146 17.2999 3.798 17.2993 3.70076C17.2988 3.60353 17.2603 3.51052 17.1923 3.44234C12.5004 -1.14745 5.09839 -1.14745 0.406479 3.44234C0.338514 3.51047 0.299951 3.60345 0.299324 3.70069C0.298697 3.79792 0.336059 3.89141 0.40314 3.96045L1.69028 5.28603C1.82277 5.42226 2.0381 5.42396 2.17263 5.28982C3.96047 3.55494 6.33298 2.58752 8.79978 2.58753ZM8.83523 6.58937C10.1904 6.58929 11.4973 7.10346 12.5018 8.03199C12.6377 8.16376 12.8518 8.16091 12.9842 8.02555L14.2695 6.69997C14.3372 6.63044 14.3747 6.53611 14.3738 6.4381C14.3728 6.34008 14.3333 6.24656 14.2643 6.17844C11.2052 3.27385 6.46784 3.27385 3.40876 6.17844C3.33966 6.24656 3.30024 6.34013 3.29933 6.43817C3.29843 6.53622 3.33611 6.63054 3.40394 6.69997L4.68885 8.02555C4.8213 8.16091 5.03533 8.16376 5.17121 8.03199C6.1751 7.10408 7.48091 6.58995 8.83523 6.58937ZM11.4489 9.17672C11.4508 9.27501 11.413 9.36977 11.3442 9.43863L9.12097 11.7289C9.05579 11.7962 8.96694 11.834 8.87422 11.834C8.78151 11.834 8.69266 11.7962 8.62748 11.7289L6.40384 9.43863C6.33515 9.36972 6.29736 9.27492 6.29939 9.17663C6.30143 9.07834 6.34311 8.98527 6.4146 8.91938C7.83446 7.69354 9.91399 7.69354 11.3339 8.91938C11.4053 8.98532 11.4469 9.07843 11.4489 9.17672Z" fill="black"/>
</svg>
