<svg width="19" height="12" viewBox="0 0 19 12" fill="none" xmlns="http://www.w3.org/2000/svg">
<g id="Icon / Mobile Signal">
<path d="M10.2993 3C10.2993 2.44772 10.747 2 11.2993 2H12.2993C12.8516 2 13.2993 2.44772 13.2993 3V11C13.2993 11.5523 12.8516 12 12.2993 12H11.2993C10.747 12 10.2993 11.5523 10.2993 11V3Z" fill="black"/>
<path d="M15.2993 1C15.2993 0.447715 15.747 0 16.2993 0H17.2993C17.8516 0 18.2993 0.447715 18.2993 1V11C18.2993 11.5523 17.8516 12 17.2993 12H16.2993C15.747 12 15.2993 11.5523 15.2993 11V1Z" fill="black"/>
<path d="M5.29932 6.5C5.29932 5.94772 5.74703 5.5 6.29932 5.5H7.29932C7.8516 5.5 8.29932 5.94772 8.29932 6.5V11C8.29932 11.5523 7.8516 12 7.29932 12H6.29932C5.74703 12 5.29932 11.5523 5.29932 11V6.5Z" fill="black"/>
<path d="M0.299316 9C0.299316 8.44772 0.747032 8 1.29932 8H2.29932C2.8516 8 3.29932 8.44772 3.29932 9V11C3.29932 11.5523 2.8516 12 2.29932 12H1.29932C0.747032 12 0.299316 11.5523 0.299316 11V9Z" fill="black"/>
</g>
</svg>
